<svg viewBox="0 0 72 72" xmlns="http://www.w3.org/2000/svg"><g style="fill:none;stroke:#000;stroke-linecap:round;stroke-linejoin:round;stroke-miterlimit:10;stroke-width:2"><circle cx="36" cy="12" r="3"/><path d="m36 10.75c0-2.7617 2.2383-5 5-5"/><path d="m11.251 45.5361c1.9521 1.9522 5.1181 1.9522 7.0703 0 1.9531-1.9521 5.1191-1.9521 7.0723 0 1.9521 1.9522 5.1181 1.9522 7.0703 0 1.9531-1.9521 5.1191-1.9521 7.0722 0 1.9522 1.9522 5.1182 1.9522 7.0703 0 1.9532-1.9521 5.1192-1.9521 7.0723 0 1.9522 1.9522 5.1182 1.9522 7.0703 0 1.6992-1.6982 4.3135-1.915 6.251-.6591v-3.877c0-2.7617-2.2393-5-5-5h-52c-2.7607 0-5 2.2383-5 5v3.877c1.9375-1.2559 4.5518-1.0391 6.251.6591z"/><path d="m5 44.877v15.123c0 1.1045.8955 2 2 2h58c1.1045 0 2-.8955 2-2v-15.123"/><path d="m11.251 45.5361c1.9521 1.9522 5.1181 1.9522 7.0703 0 1.9531-1.9521 5.1191-1.9521 7.0723 0 1.9521 1.9522 5.1181 1.9522 7.0703 0 1.9531-1.9521 5.1191-1.9521 7.0722 0 1.9522 1.9522 5.1182 1.9522 7.0703 0 1.9532-1.9521 5.1192-1.9521 7.0723 0 1.9522 1.9522 5.1182 1.9522 7.0703 0 1.6992-1.6982 4.3135-1.915 6.251-.6591v-3.877c0-2.7617-2.2393-5-5-5h-52c-2.7607 0-5 2.2383-5 5v3.877c1.9375-1.2559 4.5518-1.0391 6.251.6591z"/><path d="m60 21.9238v10.0762"/><path d="m12 21.9238v10.0762"/><path d="m12 21.9238c1.9443-1.3081 4.6025-1.1064 6.3213.6123 1.9531 1.9522 5.1191 1.9522 7.0723 0 1.9521-1.9521 5.1181-1.9521 7.0703 0 1.9531 1.9522 5.1191 1.9522 7.0722 0 1.9522-1.9521 5.1182-1.9521 7.0703 0 1.9532 1.9522 5.1192 1.9522 7.0723 0 1.7188-1.7187 4.377-1.9204 6.3213-.6123v-1.9238c0-2.7612-2.2393-5-5-5h-38c-2.7607 0-5 2.2388-5 5z"/></g></svg>